<svg viewBox="0 0 249 36" xmlns="http://www.w3.org/2000/svg" data-logo="logo">
                <g transform="translate(0, 1)" id="logogram" style="opacity: 1;"><path fill="#007AFF" d="M16.0573 0H37.1389L21.6397 22.9729H0.558105L16.0573 0Z"></path><path fill="#34BBFE" d="M16.9805 25.102L10.9773 34H33.0589L48.5581 11.0271H32.2605L22.7645 25.102H16.9805Z"></path></g>
                <g transform="translate(51, 0)" id="logotype" style="opacity: 1;"><path d="M9.52 29.20L4.31 29.20L4.31 3.74L21.06 3.74L21.06 8.06L9.52 8.06L9.52 15.17L19.93 15.17L19.93 19.42L9.52 19.42L9.52 29.20ZM23.89 3.74L29.02 3.74L29.02 29.20L23.89 29.20L23.89 3.74ZM41.08 29.58L41.08 29.58Q38.21 29.58 36.11 28.34Q34.00 27.10 32.87 24.88Q31.73 22.67 31.73 19.73L31.73 19.73Q31.73 16.76 32.87 14.55Q34.00 12.33 36.11 11.09Q38.21 9.85 41.08 9.85L41.08 9.85Q43.97 9.85 46.06 11.09Q48.15 12.33 49.29 14.55Q50.43 16.76 50.43 19.73L50.43 19.73Q50.43 22.67 49.29 24.88Q48.15 27.10 46.06 28.34Q43.97 29.58 41.08 29.58ZM41.08 25.54L41.08 25.54Q42.45 25.54 43.37 24.78Q44.29 24.02 44.75 22.70Q45.22 21.37 45.22 19.72L45.22 19.72Q45.22 18.02 44.75 16.71Q44.29 15.39 43.37 14.64Q42.45 13.89 41.08 13.89L41.08 13.89Q39.71 13.89 38.80 14.64Q37.88 15.39 37.42 16.71Q36.96 18.02 36.96 19.72L36.96 19.72Q36.96 21.37 37.42 22.70Q37.88 24.02 38.80 24.78Q39.71 25.54 41.08 25.54ZM62.35 29.20L57.14 29.20L51.50 10.09L56.88 10.09L58.54 17.15Q58.97 19.05 59.47 21.28Q59.96 23.51 60.37 26.21L60.37 26.21L59.79 26.21Q60.23 23.58 60.76 21.34Q61.29 19.10 61.76 17.15L61.76 17.15L63.50 10.09L68.22 10.09L69.91 17.15Q70.35 19.08 70.88 21.31Q71.41 23.54 71.87 26.21L71.87 26.21L71.29 26.21Q71.70 23.56 72.17 21.33Q72.64 19.10 73.09 17.15L73.09 17.15L74.74 10.09L80.20 10.09L74.52 29.20L69.31 29.20L67.19 21.83Q66.88 20.72 66.57 19.38Q66.27 18.04 65.98 16.65Q65.69 15.25 65.38 14.04L65.38 14.04L66.28 14.04Q65.99 15.25 65.69 16.65Q65.40 18.04 65.09 19.39Q64.78 20.74 64.47 21.83L64.47 21.83L62.35 29.20ZM91.52 29.58L91.52 29.58Q88.46 29.58 86.20 28.64Q83.94 27.70 82.67 25.85Q81.41 24.00 81.34 21.30L81.34 21.30L86.41 21.30Q86.52 22.59 87.18 23.45Q87.85 24.31 88.96 24.74Q90.07 25.17 91.47 25.17L91.47 25.17Q92.87 25.17 93.91 24.77Q94.94 24.36 95.52 23.63Q96.10 22.89 96.10 21.92L96.10 21.92Q96.10 21.05 95.58 20.46Q95.06 19.87 94.09 19.44Q93.11 19.01 91.71 18.69L91.71 18.69L88.91 17.99Q85.68 17.20 83.85 15.52Q82.02 13.84 82.02 11.07L82.02 11.07Q82.02 8.76 83.26 7.03Q84.50 5.31 86.66 4.35Q88.82 3.39 91.59 3.39L91.59 3.39Q94.41 3.39 96.51 4.36Q98.62 5.33 99.79 7.04Q100.97 8.76 101.01 11.00L101.01 11.00L95.97 11.00Q95.83 9.46 94.66 8.62Q93.49 7.79 91.54 7.79L91.54 7.79Q90.22 7.79 89.28 8.16Q88.34 8.54 87.85 9.20Q87.35 9.87 87.35 10.73L87.35 10.73Q87.35 11.67 87.93 12.29Q88.50 12.91 89.43 13.30Q90.36 13.68 91.44 13.94L91.44 13.94L93.74 14.50Q95.35 14.86 96.74 15.48Q98.12 16.09 99.16 16.99Q100.20 17.89 100.78 19.12Q101.35 20.35 101.35 21.95L101.35 21.95Q101.35 24.26 100.19 25.98Q99.03 27.70 96.82 28.64Q94.62 29.58 91.52 29.58ZM109.28 36.34L104.15 36.34L104.15 10.09L109.19 10.09L109.19 13.31L109.43 13.31Q109.79 12.55 110.45 11.75Q111.11 10.95 112.18 10.40Q113.26 9.85 114.88 9.85L114.88 9.85Q117.00 9.85 118.76 10.95Q120.52 12.04 121.57 14.23Q122.62 16.42 122.62 19.68L122.62 19.68Q122.62 22.86 121.60 25.06Q120.57 27.25 118.81 28.39Q117.05 29.52 114.85 29.52L114.85 29.52Q113.29 29.52 112.22 28.99Q111.14 28.47 110.46 27.69Q109.79 26.91 109.43 26.14L109.43 26.14L109.28 26.14L109.28 36.34ZM113.28 25.41L113.28 25.41Q114.61 25.41 115.52 24.67Q116.44 23.94 116.91 22.64Q117.38 21.34 117.38 19.66L117.38 19.66Q117.38 17.99 116.91 16.71Q116.44 15.43 115.53 14.69Q114.63 13.96 113.28 13.96L113.28 13.96Q111.96 13.96 111.04 14.67Q110.11 15.37 109.64 16.65Q109.16 17.92 109.16 19.66L109.16 19.66Q109.16 21.39 109.64 22.68Q110.13 23.97 111.05 24.69Q111.98 25.41 113.28 25.41ZM130.50 18.14L130.50 18.14L130.50 29.20L125.37 29.20L125.37 3.74L130.40 3.74L130.40 14.86L129.99 14.86Q130.74 12.47 132.27 11.16Q133.80 9.85 136.23 9.85L136.23 9.85Q138.21 9.85 139.69 10.72Q141.16 11.58 141.98 13.20Q142.79 14.81 142.79 17.05L142.79 17.05L142.79 29.20L137.66 29.20L137.66 17.94Q137.66 16.16 136.75 15.15Q135.83 14.14 134.21 14.14L134.21 14.14Q133.13 14.14 132.29 14.61Q131.44 15.08 130.97 15.97Q130.50 16.86 130.50 18.14ZM154.95 29.58L154.95 29.58Q152.03 29.58 149.91 28.38Q147.79 27.18 146.66 24.98Q145.52 22.77 145.52 19.75L145.52 19.75Q145.52 16.79 146.65 14.57Q147.78 12.35 149.84 11.10Q151.91 9.85 154.70 9.85L154.70 9.85Q156.58 9.85 158.20 10.45Q159.82 11.05 161.05 12.26Q162.28 13.46 162.98 15.27Q163.67 17.08 163.67 19.54L163.67 19.54L163.67 20.98L147.62 20.98L147.62 17.77L161.16 17.77L158.76 18.62Q158.76 17.13 158.31 16.03Q157.86 14.93 156.96 14.32Q156.06 13.72 154.73 13.72L154.73 13.72Q153.41 13.72 152.48 14.33Q151.55 14.95 151.07 16.00Q150.60 17.05 150.60 18.40L150.60 18.40L150.60 20.67Q150.60 22.33 151.15 23.46Q151.71 24.59 152.71 25.15Q153.71 25.71 155.04 25.71L155.04 25.71Q155.94 25.71 156.68 25.46Q157.41 25.20 157.94 24.70Q158.46 24.19 158.73 23.46L158.73 23.46L163.38 24.33Q162.92 25.90 161.77 27.09Q160.63 28.28 158.91 28.93Q157.19 29.58 154.95 29.58ZM171.46 29.20L166.33 29.20L166.33 10.09L171.29 10.09L171.29 13.43L171.49 13.43Q172.02 11.65 173.26 10.74Q174.50 9.84 176.11 9.84L176.11 9.84Q176.50 9.84 176.95 9.88Q177.41 9.92 177.77 10.01L177.77 10.01L177.77 14.59Q177.42 14.47 176.77 14.40Q176.12 14.33 175.54 14.33L175.54 14.33Q174.38 14.33 173.44 14.84Q172.50 15.34 171.98 16.24Q171.46 17.13 171.46 18.33L171.46 18.33L171.46 29.20ZM188.38 29.58L188.38 29.58Q185.45 29.58 183.33 28.38Q181.21 27.18 180.08 24.98Q178.94 22.77 178.94 19.75L178.94 19.75Q178.94 16.79 180.07 14.57Q181.20 12.35 183.27 11.10Q185.33 9.85 188.12 9.85L188.12 9.85Q190.00 9.85 191.62 10.45Q193.25 11.05 194.48 12.26Q195.71 13.46 196.40 15.27Q197.09 17.08 197.09 19.54L197.09 19.54L197.09 20.98L181.04 20.98L181.04 17.77L194.58 17.77L192.19 18.62Q192.19 17.13 191.73 16.03Q191.28 14.93 190.38 14.32Q189.49 13.72 188.15 13.72L188.15 13.72Q186.84 13.72 185.91 14.33Q184.97 14.95 184.50 16.00Q184.02 17.05 184.02 18.40L184.02 18.40L184.02 20.67Q184.02 22.33 184.57 23.46Q185.13 24.59 186.13 25.15Q187.13 25.71 188.46 25.71L188.46 25.71Q189.37 25.71 190.10 25.46Q190.84 25.20 191.36 24.70Q191.88 24.19 192.15 23.46L192.15 23.46L196.80 24.33Q196.34 25.90 195.19 27.09Q194.05 28.28 192.33 28.93Q190.61 29.58 188.38 29.58Z" fill="#277191"></path></g>
                
            </svg>